<?xml version="1.0" standalone="no"?>
<!DOCTYPE svg PUBLIC "-//W3C//DTD SVG 20010904//EN"
 "http://www.w3.org/TR/2001/REC-SVG-20010904/DTD/svg10.dtd">
<svg version="1.0" xmlns="http://www.w3.org/2000/svg"
 width="200.000000pt" height="200.000000pt" viewBox="0 0 200.000000 200.000000"
 preserveAspectRatio="xMidYMid meet">
<metadata>
Created by potrace 1.14, written by Peter Selinger 2001-2017
</metadata>
<g transform="translate(0.000000,200.000000) scale(0.100000,-0.100000)"
fill="#000000" stroke="none">
<path d="M827 1985 c-320 -61 -590 -265 -727 -550 -184 -384 -105 -846 196
-1143 339 -334 852 -386 1252 -126 349 227 523 666 423 1069 -90 363 -372 645
-736 736 -107 27 -304 34 -408 14z m288 -375 c4 -6 -64 -132 -150 -280 -86
-148 -162 -285 -168 -305 -13 -44 -15 -40 164 -352 76 -133 139 -249 139 -257
0 -29 -38 -36 -200 -36 l-162 0 -25 28 c-14 15 -94 146 -179 291 -123 211
-154 272 -154 301 0 28 22 74 91 196 191 333 229 394 257 408 33 18 376 23
387 6z m188 -22 c14 -18 89 -143 168 -278 191 -327 193 -269 -21 -640 -92
-159 -172 -286 -181 -288 -19 -3 -191 288 -191 324 0 12 34 82 76 156 42 74
76 140 76 148 0 8 -34 74 -75 147 -41 74 -75 144 -75 156 0 19 130 256 162
294 17 21 35 15 61 -19z"/>
</g>
</svg>
